# xmcd
#
# Track frame offsets:
#	150
#	10468
#	22243
#	37020
#	49920
#	66794
#	82317
#	96194
#	108044
#	121768
#	133919
#	148393
#	162643
#	174643
#
# Disc length: 2514 seconds
#
# Revision: 1
# Processed by: cddbd v1.5.1PL0 Copyright (c) Steve Scherf et al.
# Submitted via: audiograbber 1.82.02
#
DISCID=d309d00e
DTITLE=Owen Blundell - Regular O
DYEAR=1900
DGENRE=Country
TTITLE0=Regular O
TTITLE1=No Reasons For Going Home
TTITLE2=Island In The Sea
TTITLE3=Do What You Do Well
TTITLE4=Blue Misty
TTITLE5=Life Turned Her That Way
TTITLE6=Winoweh
TTITLE7=My Daddy Was A Trucker
TTITLE8=Amazing Grace
TTITLE9=It's A Small World
TTITLE10=My True Love
TTITLE11=Bluest Heartache Of The Year
TTITLE12=Lights On The Hill
TTITLE13=Sarah's Eyes
EXTD=
EXTT0=
EXTT1=
EXTT2=
EXTT3=
EXTT4=
EXTT5=
EXTT6=
EXTT7=
EXTT8=
EXTT9=
EXTT10=
EXTT11=
EXTT12=
EXTT13=
PLAYORDER=
